<svg xmlns="http://www.w3.org/2000/svg" viewBox="0 0 120 32"><rect width="120" height="32" rx="6" fill="#635BFF"/><g><path d="M36.5 20.7c0 1.2-.9 2.1-2.2 2.1-.6 0-1.2-.1-1.7-.3v-1.5c.5.2 1 .3 1.5.3.4 0 .7-.2.7-.5 0-.3-.2-.4-.8-.6-1.1-.3-1.8-.7-1.8-1.8 0-1.1.9-1.8 2.1-1.8.5 0 1.1.1 1.5.3v1.4c-.4-.2-.9-.3-1.3-.3-.4 0-.6.2-.6.4 0 .3.2.4.8.6 1.1.3 1.8.7 1.8 1.8z" fill="#fff"/></g><text x="60" y="22" text-anchor="middle" fill="#fff" font-family="Arial, Helvetica, sans-serif" font-size="18" font-weight="bold">Stripe</text></svg>