<svg width="1200" height="600" viewBox="0 0 1200 600" xmlns="http://www.w3.org/2000/svg">
  <!-- Background gradient -->
  <defs>
    <linearGradient id="bgGrad2" x1="0%" y1="0%" x2="100%" y2="100%">
      <stop offset="0%" style="stop-color:#0f172a;stop-opacity:1" />
      <stop offset="50%" style="stop-color:#1e293b;stop-opacity:1" />
      <stop offset="100%" style="stop-color:#334155;stop-opacity:1" />
    </linearGradient>
    <linearGradient id="roadGrad" x1="0%" y1="0%" x2="100%" y2="0%">
      <stop offset="0%" style="stop-color:#475569;stop-opacity:1" />
      <stop offset="50%" style="stop-color:#64748b;stop-opacity:1" />
      <stop offset="100%" style="stop-color:#475569;stop-opacity:1" />
    </linearGradient>
    <linearGradient id="step1" x1="0%" y1="0%" x2="100%" y2="100%">
      <stop offset="0%" style="stop-color:#22c55e;stop-opacity:1" />
      <stop offset="100%" style="stop-color:#16a34a;stop-opacity:1" />
    </linearGradient>
    <linearGradient id="step2" x1="0%" y1="0%" x2="100%" y2="100%">
      <stop offset="0%" style="stop-color:#ff6b35;stop-opacity:1" />
      <stop offset="100%" style="stop-color:#0284c7;stop-opacity:1" />
    </linearGradient>
    <linearGradient id="step3" x1="0%" y1="0%" x2="100%" y2="100%">
      <stop offset="0%" style="stop-color:#f59e0b;stop-opacity:1" />
      <stop offset="100%" style="stop-color:#d97706;stop-opacity:1" />
    </linearGradient>
    <linearGradient id="step4" x1="0%" y1="0%" x2="100%" y2="100%">
      <stop offset="0%" style="stop-color:#a855f7;stop-opacity:1" />
      <stop offset="100%" style="stop-color:#7c3aed;stop-opacity:1" />
    </linearGradient>
  </defs>
  
  <!-- Background -->
  <rect width="1200" height="600" fill="url(#bgGrad2)"/>
  
  <!-- Road/Path -->
  <path d="M 100 400 Q 300 380 500 350 Q 700 320 900 300 Q 1000 290 1100 280" 
        stroke="url(#roadGrad)" stroke-width="40" fill="none" stroke-linecap="round"/>
  
  <!-- Road dashes -->
  <path d="M 180 390 L 220 385 M 340 370 L 380 365 M 540 340 L 580 335 M 740 315 L 780 310 M 940 295 L 980 290" 
        stroke="#e5e7eb" stroke-width="4" stroke-linecap="round"/>
  
  <!-- Step 1: Setup -->
  <circle cx="200" cy="385" r="50" fill="url(#step1)" stroke="white" stroke-width="4"/>
  <text x="200" y="395" text-anchor="middle" fill="white" font-family="Arial, sans-serif" font-size="32" font-weight="bold">1</text>
  
  <rect x="120" y="300" width="160" height="60" rx="8" fill="rgba(34,197,94,0.1)" stroke="rgba(34,197,94,0.3)" stroke-width="1"/>
  <text x="200" y="320" text-anchor="middle" fill="#22c55e" font-family="Arial, sans-serif" font-size="14" font-weight="bold">SETUP</text>
  <text x="200" y="335" text-anchor="middle" fill="#e5e7eb" font-family="Arial, sans-serif" font-size="12">Initial Configuration</text>
  <text x="200" y="348" text-anchor="middle" fill="#e5e7eb" font-family="Arial, sans-serif" font-size="12">Team Setup</text>
  
  <!-- Step 2: Clients -->
  <circle cx="420" cy="355" r="50" fill="url(#step2)" stroke="white" stroke-width="4"/>
  <text x="420" y="365" text-anchor="middle" fill="white" font-family="Arial, sans-serif" font-size="32" font-weight="bold">2</text>
  
  <rect x="340" y="270" width="160" height="60" rx="8" fill="rgba(14,165,233,0.1)" stroke="rgba(14,165,233,0.3)" stroke-width="1"/>
  <text x="420" y="290" text-anchor="middle" fill="#ff6b35" font-family="Arial, sans-serif" font-size="14" font-weight="bold">CLIENTS</text>
  <text x="420" y="305" text-anchor="middle" fill="#e5e7eb" font-family="Arial, sans-serif" font-size="12">Add Customer Data</text>
  <text x="420" y="318" text-anchor="middle" fill="#e5e7eb" font-family="Arial, sans-serif" font-size="12">Import Existing</text>
  
  <!-- Step 3: Jobs -->
  <circle cx="640" cy="325" r="50" fill="url(#step3)" stroke="white" stroke-width="4"/>
  <text x="640" y="335" text-anchor="middle" fill="white" font-family="Arial, sans-serif" font-size="32" font-weight="bold">3</text>
  
  <rect x="560" y="240" width="160" height="60" rx="8" fill="rgba(245,158,11,0.1)" stroke="rgba(245,158,11,0.3)" stroke-width="1"/>
  <text x="640" y="260" text-anchor="middle" fill="#f59e0b" font-family="Arial, sans-serif" font-size="14" font-weight="bold">SCHEDULE</text>
  <text x="640" y="275" text-anchor="middle" fill="#e5e7eb" font-family="Arial, sans-serif" font-size="12">Create First Jobs</text>
  <text x="640" y="288" text-anchor="middle" fill="#e5e7eb" font-family="Arial, sans-serif" font-size="12">Dispatch Team</text>
  
  <!-- Step 4: Success -->
  <circle cx="860" cy="295" r="50" fill="url(#step4)" stroke="white" stroke-width="4"/>
  <text x="860" y="305" text-anchor="middle" fill="white" font-family="Arial, sans-serif" font-size="32" font-weight="bold">4</text>
  
  <rect x="780" y="210" width="160" height="60" rx="8" fill="rgba(168,85,247,0.1)" stroke="rgba(168,85,247,0.3)" stroke-width="1"/>
  <text x="860" y="230" text-anchor="middle" fill="#a855f7" font-family="Arial, sans-serif" font-size="14" font-weight="bold">SUCCESS</text>
  <text x="860" y="245" text-anchor="middle" fill="#e5e7eb" font-family="Arial, sans-serif" font-size="12">Invoice &amp; Track</text>
  <text x="860" y="258" text-anchor="middle" fill="#e5e7eb" font-family="Arial, sans-serif" font-size="12">Scale Your Business</text>
  
  <!-- Connecting arrows -->
  <path d="M 250 370 L 290 365" stroke="#94a3b8" stroke-width="3" fill="none" marker-end="url(#arrowhead)"/>
  <path d="M 470 340 L 510 335" stroke="#94a3b8" stroke-width="3" fill="none" marker-end="url(#arrowhead)"/>
  <path d="M 690 310 L 730 305" stroke="#94a3b8" stroke-width="3" fill="none" marker-end="url(#arrowhead)"/>
  
  <defs>
    <marker id="arrowhead" markerWidth="10" markerHeight="7" refX="10" refY="3.5" orient="auto">
      <polygon points="0 0, 10 3.5, 0 7" fill="#94a3b8"/>
    </marker>
  </defs>
  
  <!-- Start flag -->
  <g transform="translate(80, 450)">
    <rect x="0" y="0" width="4" height="80" fill="#64748b"/>
    <polygon points="8,5 8,35 50,20" fill="url(#step1)"/>
    <text x="30" y="55" fill="#e5e7eb" font-family="Arial, sans-serif" font-size="12" font-weight="bold">START</text>
  </g>
  
  <!-- Finish flag -->
  <g transform="translate(1000, 350)">
    <rect x="0" y="0" width="4" height="80" fill="#64748b"/>
    <polygon points="8,5 8,35 50,20" fill="url(#step4)"/>
    <text x="25" y="55" fill="#e5e7eb" font-family="Arial, sans-serif" font-size="12" font-weight="bold">LAUNCH</text>
  </g>
  
  <!-- Title overlay -->
  <rect x="0" y="520" width="1200" height="80" fill="rgba(15,23,42,0.9)"/>
  <text x="600" y="550" text-anchor="middle" fill="#e5e7eb" font-family="Arial, sans-serif" font-size="28" font-weight="bold">Getting Started with Field Service Management</text>
  <text x="600" y="575" text-anchor="middle" fill="#94a3b8" font-family="Arial, sans-serif" font-size="16">A step-by-step guide to launching your field service business</text>
  
  <!-- Rocket icon -->
  <g transform="translate(1050, 100)">
    <ellipse cx="20" cy="40" rx="8" ry="20" fill="url(#step2)" transform="rotate(-30 20 40)"/>
    <ellipse cx="15" cy="35" rx="4" ry="12" fill="url(#step1)" transform="rotate(-30 15 35)"/>
    <polygon points="10,50 5,60 15,60" fill="#f59e0b" transform="rotate(-30 10 55)"/>
    <polygon points="25,30 30,40 20,40" fill="#f59e0b" transform="rotate(-30 25 35)"/>
    <circle cx="18" cy="32" r="2" fill="white" transform="rotate(-30 18 32)"/>
  </g>
  
  <!-- Checklist at bottom left -->
  <g transform="translate(50, 480)">
    <rect x="0" y="0" width="140" height="100" rx="8" fill="rgba(30,41,59,0.8)" stroke="rgba(148,163,184,0.2)" stroke-width="1"/>
    <text x="70" y="20" text-anchor="middle" fill="#e5e7eb" font-family="Arial, sans-serif" font-size="12" font-weight="bold">Quick Start Guide</text>
    
    <circle cx="15" cy="35" r="3" fill="#22c55e"/>
    <text x="25" y="40" fill="#e5e7eb" font-family="Arial, sans-serif" font-size="10">Set up account</text>
    
    <circle cx="15" cy="50" r="3" fill="#22c55e"/>
    <text x="25" y="55" fill="#e5e7eb" font-family="Arial, sans-serif" font-size="10">Add team members</text>
    
    <circle cx="15" cy="65" r="3" fill="#f59e0b"/>
    <text x="25" y="70" fill="#e5e7eb" font-family="Arial, sans-serif" font-size="10">Create first job</text>
    
    <circle cx="15" cy="80" r="3" fill="#6b7280"/>
    <text x="25" y="85" fill="#e5e7eb" font-family="Arial, sans-serif" font-size="10">Scale operations</text>
  </g>
</svg>